<?xml version="1.0" encoding="UTF-8"?>
<!-- Generated by Pixelmator Pro 3.8 -->
<svg width="64" height="64" viewBox="0 0 64 64" xmlns="http://www.w3.org/2000/svg">
    <path id="Path-copy-3" fill="none" stroke="#2b2b2b" stroke-width="3.2" stroke-linecap="round" stroke-linejoin="round" d="M 22 25 C 21.941313 20.081581 25.155025 15.722008 29.870659 14.323036 C 34.586292 12.924072 39.657516 14.825779 42.29052 18.980484 C 44.923523 23.135193 44.478249 28.532928 41.200001 32.200001 C 39.400002 34.200001 38 35.599998 37.400002 37.599998 C 37.099998 38.599998 37 39.599998 37 40.599998 L 27 40.599998 C 27 39.599998 26.9 38.599998 26.6 37.599998 C 26 35.599998 24.6 34.200001 22.799999 32.200001 C 21.025312 30.218414 20.030352 27.659939 20 25 Z"/>
    <path id="Path-copy-2" fill="none" stroke="#2b2b2b" stroke-width="3.2" stroke-linecap="round" stroke-linejoin="round" d="M 26 45 L 40 45"/>
    <path id="Path-copy" fill="none" stroke="#2b2b2b" stroke-width="3.2" stroke-linecap="round" stroke-linejoin="round" d="M 28 50 L 38 50"/>
    <path id="Path" fill="none" stroke="#9a9a9a" stroke-width="3.2" stroke-linecap="round" stroke-linejoin="round" d="M 27.6 28.400002 L 30.799999 32 L 33.200001 28 L 36.400002 31.599998"/>
    <path id="path1" fill="none" stroke="#ffffff" stroke-width="6.4" stroke-linecap="round" stroke-linejoin="round" d="M 9 55 L 55 9"/>
    <path id="path2" fill="none" stroke="#2b2b2b" stroke-width="3.2" stroke-linecap="round" stroke-linejoin="round" d="M 9 55 L 55 9"/>
</svg>
