<?xml version="1.0" encoding="UTF-8"?>
<!-- Generated by Pixelmator Pro 3.8 -->
<svg width="64" height="64" viewBox="0 0 64 64" xmlns="http://www.w3.org/2000/svg">
    <path id="Path" fill="none" stroke="#2b2b2b" stroke-width="3.2" stroke-linecap="round" stroke-linejoin="round" d="M 32 8 L 32 13"/>
    <path id="path1" fill="none" stroke="#2b2b2b" stroke-width="3.2" stroke-linecap="round" stroke-linejoin="round" d="M 12.4 15.400002 L 16 19"/>
    <path id="path2" fill="none" stroke="#2b2b2b" stroke-width="3.2" stroke-linecap="round" stroke-linejoin="round" d="M 51.599998 15.400002 L 48 19"/>
    <path id="path3" fill="none" stroke="#2b2b2b" stroke-width="3.2" stroke-linecap="round" stroke-linejoin="round" d="M 6 31 L 11 31"/>
    <path id="path4" fill="none" stroke="#2b2b2b" stroke-width="3.2" stroke-linecap="round" stroke-linejoin="round" d="M 58 31 L 53 31"/>
    <path id="path5" fill="none" stroke="#2b2b2b" stroke-width="3.2" stroke-linecap="round" stroke-linejoin="round" d="M 21 32 C 20.941313 27.081581 24.155025 22.722008 28.870659 21.323036 C 33.586292 19.924072 38.657516 21.825779 41.29052 25.980484 C 43.923523 30.135193 43.478249 35.532928 40.200001 39.200001 C 38.400002 41.200001 37 42.599998 36.400002 44.599998 C 36.099998 45.599998 36 46.599998 36 47.599998 L 26 47.599998 C 26 46.599998 25.9 45.599998 25.6 44.599998 C 25 42.599998 23.6 41.200001 21.799999 39.200001 C 20.025312 37.218414 19.030352 34.659939 19 32 Z"/>
    <path id="path6" fill="none" stroke="#2b2b2b" stroke-width="3.2" stroke-linecap="round" stroke-linejoin="round" d="M 25 52 L 39 52"/>
    <path id="path7" fill="none" stroke="#2b2b2b" stroke-width="3.2" stroke-linecap="round" stroke-linejoin="round" d="M 27 57 L 37 57"/>
    <path id="path8" fill="none" stroke="#e8a317" stroke-width="3.2" stroke-linecap="round" stroke-linejoin="round" d="M 27.6 31.400002 L 30.799999 35 L 33.200001 31 L 36.400002 34.599998"/>
</svg>
